<svg width="135.8mm" height="85.80000000000003mm" viewBox="0 0 135800 85800.00000000003" xmlns="http://www.w3.org/2000/svg"><defs><radialGradient cx="111000" cy="40000" r="2020" gradientUnits="userSpaceOnUse" id="color-1"><stop offset="1" stop-color="#5c6bc0"/><stop offset="1" stop-color="#1a237e"/></radialGradient><radialGradient cx="97000" cy="29100" r="2020" gradientUnits="userSpaceOnUse" id="color-2"><stop offset="1" stop-color="#5c6bc0"/><stop offset="1" stop-color="#1a237e"/></radialGradient><radialGradient cx="97000" cy="50000" r="2020" gradientUnits="userSpaceOnUse" id="color-3"><stop offset="1" stop-color="#5c6bc0"/><stop offset="1" stop-color="#1a237e"/></radialGradient><radialGradient cx="22900" cy="40000" r="2020" gradientUnits="userSpaceOnUse" id="color-4"><stop offset="1" stop-color="#5c6bc0"/><stop offset="1" stop-color="#1a237e"/></radialGradient></defs><g fill="none" fill-rule="nonzero" stroke="none" stroke-width="none" stroke-linecap="butt" stroke-linejoin="miter" stroke-miterlimit="10" stroke-dasharray="" stroke-dashoffset="0" font-family="none" font-weight="none" font-size="none" text-anchor="none" style="mix-blend-mode: normal"><path d="M100300,40425v-850h9700v850z" fill="#1a237e" stroke-width="0"/><path d="M96787.5,44000c0,-117.36051 95.13949,-212.5 212.5,-212.5v0c117.36051,0 212.5,95.13949 212.5,212.5v4000c0,117.36051 -95.13949,212.5 -212.5,212.5v0c-117.36051,0 -212.5,-95.13949 -212.5,-212.5z" fill="#1a237e" stroke-width="0"/><path d="M97212.5,35000c0,117.36051 -95.13949,212.5 -212.5,212.5v0c-117.36051,0 -212.5,-95.13949 -212.5,-212.5v-3900c0,-117.36051 95.13949,-212.5 212.5,-212.5v0c117.36051,0 212.5,95.13949 212.5,212.5z" fill="#1a237e" stroke-width="0"/><path d="M96787.5,44000c0,-117.36051 95.13949,-212.5 212.5,-212.5v0c117.36051,0 212.5,95.13949 212.5,212.5v700c0,117.36051 -95.13949,212.5 -212.5,212.5v0c-117.36051,0 -212.5,-95.13949 -212.5,-212.5z" fill="#1a237e" stroke-width="0"/><path d="M97212.5,37100c0,117.36051 -95.13949,212.5 -212.5,212.5v0c-117.36051,0 -212.5,-95.13949 -212.5,-212.5v-2100c0,-117.36051 95.13949,-212.5 212.5,-212.5v0c117.36051,0 212.5,95.13949 212.5,212.5z" fill="#1a237e" stroke-width="0"/><path d="M96787.5,42600c0,-117.36051 95.13949,-212.5 212.5,-212.5v0c117.36051,0 212.5,95.13949 212.5,212.5v1400c0,117.36051 -95.13949,212.5 -212.5,212.5v0c-117.36051,0 -212.5,-95.13949 -212.5,-212.5z" fill="#1a237e" stroke-width="0"/><path d="M95737.78041,41437.26273c-75.80811,-89.5914 -64.63454,-223.6742 24.95686,-299.48231v0c89.5914,-75.80811 223.6742,-64.63454 299.48231,24.95686l1100,1300c75.80811,89.5914 64.63454,223.6742 -24.95686,299.48231v0c-89.5914,75.80811 -223.6742,64.63454 -299.48231,-24.95686z" fill="#1a237e" stroke-width="0"/><path d="M96071.36106,38725.66478c-69.40274,94.6401 -202.38574,115.09902 -297.02584,45.69628v0c-94.6401,-69.40274 -115.09902,-202.38574 -45.69628,-297.02584l1100,-1500c69.40274,-94.6401 202.38574,-115.09902 297.02584,-45.69628v0c94.6401,69.40274 115.09902,202.38574 45.69628,297.02584z" fill="#1a237e" stroke-width="0"/><path d="M93635.56922,40802.49673c-111.83585,-35.58414 -173.65009,-155.09165 -138.06595,-266.92751v0c35.58414,-111.83585 155.09165,-173.65009 266.92751,-138.06595l2200,700c111.83585,35.58414 173.65009,155.09165 138.06595,266.92751v0c-35.58414,111.83585 -155.09165,173.65009 -266.92751,138.06595z" fill="#1a237e" stroke-width="0"/><path d="M93875.64901,39598.57864c-109.67196,41.77979 -232.44786,-13.25768 -274.22765,-122.92964v0c-41.77979,-109.67196 13.25768,-232.44786 122.92964,-274.22765l2100,-800c109.67196,-41.77979 232.44786,13.25768 274.22765,122.92964v0c41.77979,109.67196 -13.25768,232.44786 -122.92964,274.22765z" fill="#1a237e" stroke-width="0"/><path d="M93700,40425v-850h6900v850z" fill="#1a237e" stroke-width="0"/><path d="M86000,40850v-1700h8000v1700z" fill="#1a237e" stroke-width="0"/><path d="M29100,39150v1700l-4500,0v-1700z" fill="#1a237e" stroke-width="0"/><path d="M29100,39150v1700l1000,-722.5v-255z" fill="#1a237e" stroke-width="1"/><path d="M30000,40127.5v-255h55000v255z" fill="#1a237e" stroke-width="0"/><path d="M85000,39872.5v255l1000,722.5v-1700z" fill="#1a237e" stroke-width="1"/><path d="M400,85000h-800v-85000h800z" fill="#1a237e" stroke-width="0"/><path d="M135000,84600v800l-135000,0v-800z" fill="#1a237e" stroke-width="0"/><path d="M134600,0h800v85000h-800z" fill="#1a237e" stroke-width="0"/><path d="M0,400v-800h135000v800z" fill="#1a237e" stroke-width="0"/><path d="M108980,40000c0,-1115.61519 904.38481,-2020 2020,-2020c1115.61519,0 2020,904.38481 2020,2020c0,1115.61519 -904.38481,2020 -2020,2020c-1115.61519,0 -2020,-904.38481 -2020,-2020z" fill="url(#color-1)" stroke-width="1"/><path d="M94980,29100c0,-1115.61519 904.38481,-2020 2020,-2020c1115.61519,0 2020,904.38481 2020,2020c0,1115.61519 -904.38481,2020 -2020,2020c-1115.61519,0 -2020,-904.38481 -2020,-2020z" fill="url(#color-2)" stroke-width="1"/><path d="M94980,50000c0,-1115.61519 904.38481,-2020 2020,-2020c1115.61519,0 2020,904.38481 2020,2020c0,1115.61519 -904.38481,2020 -2020,2020c-1115.61519,0 -2020,-904.38481 -2020,-2020z" fill="url(#color-3)" stroke-width="1"/><path d="M20880,40000c0,-1115.61519 904.38481,-2020 2020,-2020c1115.61519,0 2020,904.38481 2020,2020c0,1115.61519 -904.38481,2020 -2020,2020c-1115.61519,0 -2020,-904.38481 -2020,-2020z" fill="url(#color-4)" stroke-width="1"/></g></svg>